<?xml version="1.0" encoding="UTF-8" standalone="no"?>
<!-- Generator: Gravit.io -->
<svg xmlns="http://www.w3.org/2000/svg" xmlns:xlink="http://www.w3.org/1999/xlink" style="isolation:isolate" viewBox="0 0 382 678" width="382pt" height="678pt"><defs><clipPath id="_clipPath_HvSwBFDX6gpiAIsn2kZiY3U3FajgXFgd"><rect width="382" height="678"/></clipPath></defs><g clip-path="url(#_clipPath_HvSwBFDX6gpiAIsn2kZiY3U3FajgXFgd)"><g><g><g><path d=" M 225.5 240 L 240.5 266 L 225.5 292 L 195.5 292 L 180.5 266 L 195.5 240 L 225.5 240 Z " fill="rgb(244,161,29)" fill-opacity="0.15"/><path d=" M 230.5 266 Q 233.625 265.25 233.5 268 L 224.5 286 L 201.5 286 Q 198.75 284.5 201.5 283 Q 209.305 283 222.5 283 Q 227.378 272.634 230.5 266 Z " fill="rgb(196,122,23)" fill-opacity="0.15"/></g><g><path d=" M 272.9 268.3 L 287.9 294.3 L 272.9 320.3 L 242.9 320.3 L 227.9 294.3 L 242.9 268.3 L 272.9 268.3 Z " fill="rgb(244,161,29)" fill-opacity="0.15"/><path d=" M 277.9 294.3 Q 281.025 293.55 280.9 296.3 L 271.9 314.3 L 248.9 314.3 Q 246.15 312.8 248.9 311.3 Q 256.705 311.3 269.9 311.3 Q 274.778 300.934 277.9 294.3 Z " fill="rgb(196,122,23)" fill-opacity="0.15"/></g><g><path d=" M 273 323.5 L 288 349.5 L 273 375.5 L 243 375.5 L 228 349.5 L 243 323.5 L 273 323.5 Z " fill="rgb(244,161,29)" fill-opacity="0.15"/><path d=" M 278 349.5 Q 281.125 348.75 281 351.5 L 272 369.5 L 249 369.5 Q 246.25 368 249 366.5 Q 256.805 366.5 270 366.5 Q 274.878 356.134 278 349.5 Z " fill="rgb(196,122,23)" fill-opacity="0.15"/></g><g><path d=" M 177.2 268 L 192.2 294 L 177.2 320 L 147.2 320 L 132.2 294 L 147.2 268 L 177.2 268 Z " fill="rgb(244,161,29)" fill-opacity="0.15"/><path d=" M 182.2 294 Q 185.325 293.25 185.2 296 L 176.2 314 L 153.2 314 Q 150.45 312.5 153.2 311 Q 161.005 311 174.2 311 Q 179.078 300.634 182.2 294 Z " fill="rgb(196,122,23)" fill-opacity="0.15"/></g><g><path d=" M 177.5 323 L 192.5 349 L 177.5 375 L 147.5 375 L 132.5 349 L 147.5 323 L 177.5 323 Z " fill="rgb(244,161,29)" fill-opacity="0.15"/><path d=" M 182.5 349 Q 185.625 348.25 185.5 351 L 176.5 369 L 153.5 369 Q 150.75 367.5 153.5 366 Q 161.305 366 174.5 366 Q 179.378 355.634 182.5 349 Z " fill="rgb(196,122,23)" fill-opacity="0.15"/></g><g><path d=" M 225.5 296 L 240.5 322 L 225.5 348 L 195.5 348 L 180.5 322 L 195.5 296 L 225.5 296 Z " fill="rgb(244,161,29)" fill-opacity="0.15"/><path d=" M 230.5 322 Q 233.625 321.25 233.5 324 L 224.5 342 L 201.5 342 Q 198.75 340.5 201.5 339 Q 209.305 339 222.5 339 Q 227.378 328.634 230.5 322 Z " fill="rgb(196,122,23)" fill-opacity="0.15"/></g><g><path d=" M 225.5 351 L 240.5 377 L 225.5 403 L 195.5 403 L 180.5 377 L 195.5 351 L 225.5 351 Z " fill="rgb(244,161,29)" fill-opacity="0.15"/><path d=" M 230.5 377 Q 233.625 376.25 233.5 379 L 224.5 397 L 201.5 397 Q 198.75 395.5 201.5 394 Q 209.305 394 222.5 394 Q 227.378 383.634 230.5 377 Z " fill="rgb(196,122,23)" fill-opacity="0.15"/></g></g><g><g><path d=" M 129 406.5 L 144 432.5 L 129 458.5 L 99 458.5 L 84 432.5 L 99 406.5 L 129 406.5 Z " fill="rgb(244,161,29)" fill-opacity="0.15"/><path d=" M 134 432.5 Q 137.125 431.75 137 434.5 L 128 452.5 L 105 452.5 Q 102.25 451 105 449.5 Q 112.805 449.5 126 449.5 Q 130.878 439.134 134 432.5 Z " fill="rgb(196,122,23)" fill-opacity="0.15"/></g><g><path d=" M 176.4 434.8 L 191.4 460.8 L 176.4 486.8 L 146.4 486.8 L 131.4 460.8 L 146.4 434.8 L 176.4 434.8 Z " fill="rgb(244,161,29)" fill-opacity="0.15"/><path d=" M 181.4 460.8 Q 184.525 460.05 184.4 462.8 L 175.4 480.8 L 152.4 480.8 Q 149.65 479.3 152.4 477.8 Q 160.205 477.8 173.4 477.8 Q 178.278 467.434 181.4 460.8 Z " fill="rgb(196,122,23)" fill-opacity="0.15"/></g><g><path d=" M 176.5 490 L 191.5 516 L 176.5 542 L 146.5 542 L 131.5 516 L 146.5 490 L 176.5 490 Z " fill="rgb(244,161,29)" fill-opacity="0.15"/><path d=" M 181.5 516 Q 184.625 515.25 184.5 518 L 175.5 536 L 152.5 536 Q 149.75 534.5 152.5 533 Q 160.305 533 173.5 533 Q 178.378 522.634 181.5 516 Z " fill="rgb(196,122,23)" fill-opacity="0.15"/></g><g><path d=" M 80.7 434.5 L 95.7 460.5 L 80.7 486.5 L 50.7 486.5 L 35.7 460.5 L 50.7 434.5 L 80.7 434.5 Z " fill="rgb(244,161,29)" fill-opacity="0.15"/><path d=" M 85.7 460.5 Q 88.825 459.75 88.7 462.5 L 79.7 480.5 L 56.7 480.5 Q 53.95 479 56.7 477.5 Q 64.505 477.5 77.7 477.5 Q 82.578 467.134 85.7 460.5 Z " fill="rgb(196,122,23)" fill-opacity="0.15"/></g><g><path d=" M 81 489.5 L 96 515.5 L 81 541.5 L 51 541.5 L 36 515.5 L 51 489.5 L 81 489.5 Z " fill="rgb(244,161,29)" fill-opacity="0.15"/><path d=" M 86 515.5 Q 89.125 514.75 89 517.5 L 80 535.5 L 57 535.5 Q 54.25 534 57 532.5 Q 64.805 532.5 78 532.5 Q 82.878 522.134 86 515.5 Z " fill="rgb(196,122,23)" fill-opacity="0.15"/></g><g><path d=" M 129 462.5 L 144 488.5 L 129 514.5 L 99 514.5 L 84 488.5 L 99 462.5 L 129 462.5 Z " fill="rgb(244,161,29)" fill-opacity="0.15"/><path d=" M 134 488.5 Q 137.125 487.75 137 490.5 L 128 508.5 L 105 508.5 Q 102.25 507 105 505.5 Q 112.805 505.5 126 505.5 Q 130.878 495.134 134 488.5 Z " fill="rgb(196,122,23)" fill-opacity="0.15"/></g><g><path d=" M 129 517.5 L 144 543.5 L 129 569.5 L 99 569.5 L 84 543.5 L 99 517.5 L 129 517.5 Z " fill="rgb(244,161,29)" fill-opacity="0.15"/><path d=" M 134 543.5 Q 137.125 542.75 137 545.5 L 128 563.5 L 105 563.5 Q 102.25 562 105 560.5 Q 112.805 560.5 126 560.5 Q 130.878 550.134 134 543.5 Z " fill="rgb(196,122,23)" fill-opacity="0.15"/></g></g><g><g><g><path d=" M 287.4 585.8 L 302.4 611.8 L 287.4 637.8 L 257.4 637.8 L 242.4 611.8 L 257.4 585.8 L 287.4 585.8 Z " fill="rgb(244,161,29)" fill-opacity="0.15"/><path d=" M 292.4 611.8 Q 295.525 611.05 295.4 613.8 L 286.4 631.8 L 263.4 631.8 Q 260.65 630.3 263.4 628.8 Q 271.205 628.8 284.4 628.8 Q 289.278 618.434 292.4 611.8 Z " fill="rgb(196,122,23)" fill-opacity="0.15"/></g><g><path d=" M 287.5 641 L 302.5 667 L 287.5 693 L 257.5 693 L 242.5 667 L 257.5 641 L 287.5 641 Z " fill="rgb(244,161,29)" fill-opacity="0.15"/><path d=" M 292.5 667 Q 295.625 666.25 295.5 669 L 286.5 687 L 263.5 687 Q 260.75 685.5 263.5 684 Q 271.305 684 284.5 684 Q 289.378 673.634 292.5 667 Z " fill="rgb(196,122,23)" fill-opacity="0.15"/></g><g><path d=" M 240 613.5 L 255 639.5 L 240 665.5 L 210 665.5 L 195 639.5 L 210 613.5 L 240 613.5 Z " fill="rgb(244,161,29)" fill-opacity="0.15"/><path d=" M 245 639.5 Q 248.125 638.75 248 641.5 L 239 659.5 L 216 659.5 Q 213.25 658 216 656.5 Q 223.805 656.5 237 656.5 Q 241.878 646.134 245 639.5 Z " fill="rgb(196,122,23)" fill-opacity="0.15"/></g></g><g><g><path d=" M 274.8 381 L 289.8 407 L 274.8 433 L 244.8 433 L 229.8 407 L 244.8 381 L 274.8 381 Z " fill="rgb(244,161,29)" fill-opacity="0.15"/><path d=" M 279.8 407 Q 282.925 406.25 282.8 409 L 273.8 427 L 250.8 427 Q 248.05 425.5 250.8 424 Q 258.605 424 271.8 424 Q 276.678 413.634 279.8 407 Z " fill="rgb(196,122,23)" fill-opacity="0.15"/></g><g><path d=" M 322.2 409.3 L 337.2 435.3 L 322.2 461.3 L 292.2 461.3 L 277.2 435.3 L 292.2 409.3 L 322.2 409.3 Z " fill="rgb(244,161,29)" fill-opacity="0.15"/><path d=" M 327.2 435.3 Q 330.325 434.55 330.2 437.3 L 321.2 455.3 L 298.2 455.3 Q 295.45 453.8 298.2 452.3 Q 306.005 452.3 319.2 452.3 Q 324.078 441.934 327.2 435.3 Z " fill="rgb(196,122,23)" fill-opacity="0.15"/></g><g><path d=" M 322.3 464.5 L 337.3 490.5 L 322.3 516.5 L 292.3 516.5 L 277.3 490.5 L 292.3 464.5 L 322.3 464.5 Z " fill="rgb(244,161,29)" fill-opacity="0.15"/><path d=" M 327.3 490.5 Q 330.425 489.75 330.3 492.5 L 321.3 510.5 L 298.3 510.5 Q 295.55 509 298.3 507.5 Q 306.105 507.5 319.3 507.5 Q 324.178 497.134 327.3 490.5 Z " fill="rgb(196,122,23)" fill-opacity="0.15"/></g><g><path d=" M 226.5 409 L 241.5 435 L 226.5 461 L 196.5 461 L 181.5 435 L 196.5 409 L 226.5 409 Z " fill="rgb(244,161,29)" fill-opacity="0.15"/><path d=" M 231.5 435 Q 234.625 434.25 234.5 437 L 225.5 455 L 202.5 455 Q 199.75 453.5 202.5 452 Q 210.305 452 223.5 452 Q 228.378 441.634 231.5 435 Z " fill="rgb(196,122,23)" fill-opacity="0.15"/></g><g><path d=" M 226.8 464 L 241.8 490 L 226.8 516 L 196.8 516 L 181.8 490 L 196.8 464 L 226.8 464 Z " fill="rgb(244,161,29)" fill-opacity="0.15"/><path d=" M 231.8 490 Q 234.925 489.25 234.8 492 L 225.8 510 L 202.8 510 Q 200.05 508.5 202.8 507 Q 210.605 507 223.8 507 Q 228.678 496.634 231.8 490 Z " fill="rgb(196,122,23)" fill-opacity="0.15"/></g><g><path d=" M 274.8 437 L 289.8 463 L 274.8 489 L 244.8 489 L 229.8 463 L 244.8 437 L 274.8 437 Z " fill="rgb(244,161,29)" fill-opacity="0.15"/><path d=" M 279.8 463 Q 282.925 462.25 282.8 465 L 273.8 483 L 250.8 483 Q 248.05 481.5 250.8 480 Q 258.605 480 271.8 480 Q 276.678 469.634 279.8 463 Z " fill="rgb(196,122,23)" fill-opacity="0.15"/></g><g><path d=" M 274.8 492 L 289.8 518 L 274.8 544 L 244.8 544 L 229.8 518 L 244.8 492 L 274.8 492 Z " fill="rgb(244,161,29)" fill-opacity="0.15"/><path d=" M 279.8 518 Q 282.925 517.25 282.8 520 L 273.8 538 L 250.8 538 Q 248.05 536.5 250.8 535 Q 258.605 535 271.8 535 Q 276.678 524.634 279.8 518 Z " fill="rgb(196,122,23)" fill-opacity="0.15"/></g></g><g><g><path d=" M 225.5 520 L 240.5 546 L 225.5 572 L 195.5 572 L 180.5 546 L 195.5 520 L 225.5 520 Z " fill="rgb(244,161,29)" fill-opacity="0.15"/><path d=" M 230.5 546 Q 233.625 545.25 233.5 548 L 224.5 566 L 201.5 566 Q 198.75 564.5 201.5 563 Q 209.305 563 222.5 563 Q 227.378 552.634 230.5 546 Z " fill="rgb(196,122,23)" fill-opacity="0.15"/></g></g><g><g><path d=" M 372.5 529.5 L 387.5 555.5 L 372.5 581.5 L 342.5 581.5 L 327.5 555.5 L 342.5 529.5 L 372.5 529.5 Z " fill="rgb(244,161,29)" fill-opacity="0.15"/><path d=" M 377.5 555.5 Q 380.625 554.75 380.5 557.5 L 371.5 575.5 L 348.5 575.5 Q 345.75 574 348.5 572.5 Q 356.305 572.5 369.5 572.5 Q 374.378 562.134 377.5 555.5 Z " fill="rgb(196,122,23)" fill-opacity="0.15"/></g></g><g><g><path d=" M 370.5 436.5 L 385.5 462.5 L 370.5 488.5 L 340.5 488.5 L 325.5 462.5 L 340.5 436.5 L 370.5 436.5 Z " fill="rgb(244,161,29)" fill-opacity="0.15"/><path d=" M 375.5 462.5 Q 378.625 461.75 378.5 464.5 L 369.5 482.5 L 346.5 482.5 Q 343.75 481 346.5 479.5 Q 354.305 479.5 367.5 479.5 Q 372.378 469.134 375.5 462.5 Z " fill="rgb(196,122,23)" fill-opacity="0.15"/></g></g></g><g><g><g><path d=" M 221.5 35.8 L 236.5 61.8 L 221.5 87.8 L 191.5 87.8 L 176.5 61.8 L 191.5 35.8 L 221.5 35.8 Z " fill="rgb(244,161,29)" fill-opacity="0.15"/><path d=" M 226.5 61.8 Q 229.625 61.05 229.5 63.8 L 220.5 81.8 L 197.5 81.8 Q 194.75 80.3 197.5 78.8 Q 205.305 78.8 218.5 78.8 Q 223.378 68.434 226.5 61.8 Z " fill="rgb(196,122,23)" fill-opacity="0.15"/></g><g><path d=" M 221.6 91 L 236.6 117 L 221.6 143 L 191.6 143 L 176.6 117 L 191.6 91 L 221.6 91 Z " fill="rgb(244,161,29)" fill-opacity="0.15"/><path d=" M 226.6 117 Q 229.725 116.25 229.6 119 L 220.6 137 L 197.6 137 Q 194.85 135.5 197.6 134 Q 205.405 134 218.6 134 Q 223.478 123.634 226.6 117 Z " fill="rgb(196,122,23)" fill-opacity="0.15"/></g><g><path d=" M 174.1 63.5 L 189.1 89.5 L 174.1 115.5 L 144.1 115.5 L 129.1 89.5 L 144.1 63.5 L 174.1 63.5 Z " fill="rgb(244,161,29)" fill-opacity="0.15"/><path d=" M 179.1 89.5 Q 182.225 88.75 182.1 91.5 L 173.1 109.5 L 150.1 109.5 Q 147.35 108 150.1 106.5 Q 157.905 106.5 171.1 106.5 Q 175.978 96.134 179.1 89.5 Z " fill="rgb(196,122,23)" fill-opacity="0.15"/></g></g><g><g><path d=" M 159.6 -30 L 174.6 -4 L 159.6 22 L 129.6 22 L 114.6 -4 L 129.6 -30 L 159.6 -30 Z " fill="rgb(244,161,29)" fill-opacity="0.15"/><path d=" M 164.6 -4 Q 167.725 -4.75 167.6 -2 L 158.6 16 L 135.6 16 Q 132.85 14.5 135.6 13 Q 143.405 13 156.6 13 Q 161.478 2.634 164.6 -4 Z " fill="rgb(196,122,23)" fill-opacity="0.15"/></g></g><g><g><path d=" M 306.6 -20.5 L 321.6 5.5 L 306.6 31.5 L 276.6 31.5 L 261.6 5.5 L 276.6 -20.5 L 306.6 -20.5 Z " fill="rgb(244,161,29)" fill-opacity="0.15"/><path d=" M 311.6 5.5 Q 314.725 4.75 314.6 7.5 L 305.6 25.5 L 282.6 25.5 Q 279.85 24 282.6 22.5 Q 290.405 22.5 303.6 22.5 Q 308.478 12.134 311.6 5.5 Z " fill="rgb(196,122,23)" fill-opacity="0.15"/></g></g></g><g><g><g><path d=" M 91.9 268.3 L 106.9 294.3 L 91.9 320.3 L 61.9 320.3 L 46.9 294.3 L 61.9 268.3 L 91.9 268.3 Z " fill="rgb(244,161,29)" fill-opacity="0.15"/><path d=" M 96.9 294.3 Q 100.025 293.55 99.9 296.3 L 90.9 314.3 L 67.9 314.3 Q 65.15 312.8 67.9 311.3 Q 75.705 311.3 88.9 311.3 Q 93.778 300.934 96.9 294.3 Z " fill="rgb(196,122,23)" fill-opacity="0.15"/></g><g><path d=" M 92 323.5 L 107 349.5 L 92 375.5 L 62 375.5 L 47 349.5 L 62 323.5 L 92 323.5 Z " fill="rgb(244,161,29)" fill-opacity="0.15"/><path d=" M 97 349.5 Q 100.125 348.75 100 351.5 L 91 369.5 L 68 369.5 Q 65.25 368 68 366.5 Q 75.805 366.5 89 366.5 Q 93.878 356.134 97 349.5 Z " fill="rgb(196,122,23)" fill-opacity="0.15"/></g><g><path d=" M 44.5 296 L 59.5 322 L 44.5 348 L 14.5 348 L -0.5 322 L 14.5 296 L 44.5 296 Z " fill="rgb(244,161,29)" fill-opacity="0.15"/><path d=" M 49.5 322 Q 52.625 321.25 52.5 324 L 43.5 342 L 20.5 342 Q 17.75 340.5 20.5 339 Q 28.305 339 41.5 339 Q 46.378 328.634 49.5 322 Z " fill="rgb(196,122,23)" fill-opacity="0.15"/></g></g><g><g><path d=" M 79.3 63.5 L 94.3 89.5 L 79.3 115.5 L 49.3 115.5 L 34.3 89.5 L 49.3 63.5 L 79.3 63.5 Z " fill="rgb(244,161,29)" fill-opacity="0.15"/><path d=" M 84.3 89.5 Q 87.425 88.75 87.3 91.5 L 78.3 109.5 L 55.3 109.5 Q 52.55 108 55.3 106.5 Q 63.105 106.5 76.3 106.5 Q 81.178 96.134 84.3 89.5 Z " fill="rgb(196,122,23)" fill-opacity="0.15"/></g><g><path d=" M 126.7 91.8 L 141.7 117.8 L 126.7 143.8 L 96.7 143.8 L 81.7 117.8 L 96.7 91.8 L 126.7 91.8 Z " fill="rgb(244,161,29)" fill-opacity="0.15"/><path d=" M 131.7 117.8 Q 134.825 117.05 134.7 119.8 L 125.7 137.8 L 102.7 137.8 Q 99.95 136.3 102.7 134.8 Q 110.505 134.8 123.7 134.8 Q 128.578 124.434 131.7 117.8 Z " fill="rgb(196,122,23)" fill-opacity="0.15"/></g><g><path d=" M 126.8 147 L 141.8 173 L 126.8 199 L 96.8 199 L 81.8 173 L 96.8 147 L 126.8 147 Z " fill="rgb(244,161,29)" fill-opacity="0.15"/><path d=" M 131.8 173 Q 134.925 172.25 134.8 175 L 125.8 193 L 102.8 193 Q 100.05 191.5 102.8 190 Q 110.605 190 123.8 190 Q 128.678 179.634 131.8 173 Z " fill="rgb(196,122,23)" fill-opacity="0.15"/></g><g><path d=" M 31 91.5 L 46 117.5 L 31 143.5 L 1 143.5 L -14 117.5 L 1 91.5 L 31 91.5 Z " fill="rgb(244,161,29)" fill-opacity="0.15"/><path d=" M 36 117.5 Q 39.125 116.75 39 119.5 L 30 137.5 L 7 137.5 Q 4.25 136 7 134.5 Q 14.805 134.5 28 134.5 Q 32.878 124.134 36 117.5 Z " fill="rgb(196,122,23)" fill-opacity="0.15"/></g><g><path d=" M 31.3 146.5 L 46.3 172.5 L 31.3 198.5 L 1.3 198.5 L -13.7 172.5 L 1.3 146.5 L 31.3 146.5 Z " fill="rgb(244,161,29)" fill-opacity="0.15"/><path d=" M 36.3 172.5 Q 39.425 171.75 39.3 174.5 L 30.3 192.5 L 7.3 192.5 Q 4.55 191 7.3 189.5 Q 15.105 189.5 28.3 189.5 Q 33.178 179.134 36.3 172.5 Z " fill="rgb(196,122,23)" fill-opacity="0.15"/></g><g><path d=" M 79.3 119.5 L 94.3 145.5 L 79.3 171.5 L 49.3 171.5 L 34.3 145.5 L 49.3 119.5 L 79.3 119.5 Z " fill="rgb(244,161,29)" fill-opacity="0.15"/><path d=" M 84.3 145.5 Q 87.425 144.75 87.3 147.5 L 78.3 165.5 L 55.3 165.5 Q 52.55 164 55.3 162.5 Q 63.105 162.5 76.3 162.5 Q 81.178 152.134 84.3 145.5 Z " fill="rgb(196,122,23)" fill-opacity="0.15"/></g><g><path d=" M 79.3 174.5 L 94.3 200.5 L 79.3 226.5 L 49.3 226.5 L 34.3 200.5 L 49.3 174.5 L 79.3 174.5 Z " fill="rgb(244,161,29)" fill-opacity="0.15"/><path d=" M 84.3 200.5 Q 87.425 199.75 87.3 202.5 L 78.3 220.5 L 55.3 220.5 Q 52.55 219 55.3 217.5 Q 63.105 217.5 76.3 217.5 Q 81.178 207.134 84.3 200.5 Z " fill="rgb(196,122,23)" fill-opacity="0.15"/></g></g><g><g><path d=" M 30 202.5 L 45 228.5 L 30 254.5 L 0 254.5 L -15 228.5 L 0 202.5 L 30 202.5 Z " fill="rgb(244,161,29)" fill-opacity="0.15"/><path d=" M 35 228.5 Q 38.125 227.75 38 230.5 L 29 248.5 L 6 248.5 Q 3.25 247 6 245.5 Q 13.805 245.5 27 245.5 Q 31.878 235.134 35 228.5 Z " fill="rgb(196,122,23)" fill-opacity="0.15"/></g></g><g><g><path d=" M 177 212 L 192 238 L 177 264 L 147 264 L 132 238 L 147 212 L 177 212 Z " fill="rgb(244,161,29)" fill-opacity="0.15"/><path d=" M 182 238 Q 185.125 237.25 185 240 L 176 258 L 153 258 Q 150.25 256.5 153 255 Q 160.805 255 174 255 Q 178.878 244.634 182 238 Z " fill="rgb(196,122,23)" fill-opacity="0.15"/></g></g><g><g><path d=" M 175 119 L 190 145 L 175 171 L 145 171 L 130 145 L 145 119 L 175 119 Z " fill="rgb(244,161,29)" fill-opacity="0.15"/><path d=" M 180 145 Q 183.125 144.25 183 147 L 174 165 L 151 165 Q 148.25 163.5 151 162 Q 158.805 162 172 162 Q 176.878 151.634 180 145 Z " fill="rgb(196,122,23)" fill-opacity="0.15"/></g></g></g></g></g></svg>